<?xml version="1.0" encoding="UTF-8"?>
<svg width="74px" height="74px" viewBox="0 0 74 74" version="1.1" xmlns="http://www.w3.org/2000/svg" xmlns:xlink="http://www.w3.org/1999/xlink">
    <title>14logo</title>
    <defs>
        <linearGradient x1="50%" y1="0%" x2="50%" y2="100%" id="linearGradient-1">
            <stop stop-color="#EA36A5" offset="0%"></stop>
            <stop stop-color="#D1196C" offset="100%"></stop>
        </linearGradient>
        <linearGradient x1="50%" y1="0%" x2="50%" y2="100%" id="linearGradient-2">
            <stop stop-color="#EA36A5" offset="0%"></stop>
            <stop stop-color="#D1196C" offset="100%"></stop>
        </linearGradient>
        <linearGradient x1="50%" y1="0%" x2="50%" y2="100%" id="linearGradient-3">
            <stop stop-color="#EA36A5" offset="0%"></stop>
            <stop stop-color="#D1196C" offset="100%"></stop>
        </linearGradient>
    </defs>
    <g id="Page-1" stroke="none" stroke-width="1" fill="none" fill-rule="evenodd">
        <g id="Artboard" transform="translate(-115.000000, -96.000000)">
            <g id="14logo" transform="translate(115.000000, 96.000000)">
                <circle id="Oval" fill="#FFFFFF" cx="37" cy="37" r="27"></circle>
                <path d="M37,0 C57.4345357,0 74,16.5654643 74,37 C74,57.4345357 57.4345357,74 37,74 C16.5654643,74 0,57.4345357 0,37 C0,16.5654643 16.5654643,0 37,0 Z M37,10 C22.0883118,10 10,22.0883118 10,37 C10,51.9116882 22.0883118,64 37,64 C51.9116882,64 64,51.9116882 64,37 C64,22.0883118 51.9116882,10 37,10 Z" id="Oval" fill="url(#linearGradient-1)" fill-rule="nonzero"></path>
                <path d="M19.9335938,61.9863281 L19.9335938,35.3261719 C14.9726562,39.1347656 11.6328125,41.0390625 9.9140625,41.0390625 C9.09375,41.0390625 8.36621094,40.7119141 7.73144531,40.0576172 C7.09667969,39.4033203 6.77929688,38.6464844 6.77929688,37.7871094 C6.77929688,36.7910156 7.09179688,36.0585938 7.71679688,35.5898438 C8.34179688,35.1210938 9.4453125,34.515625 11.0273438,33.7734375 C13.390625,32.6601562 15.2802734,31.4882812 16.6962891,30.2578125 C18.1123047,29.0273438 19.3671875,27.6503906 20.4609375,26.1269531 C21.5546875,24.6035156 22.2675781,23.6660156 22.5996094,23.3144531 C22.9316406,22.9628906 23.5566406,22.7871094 24.4746094,22.7871094 C25.5097656,22.7871094 26.3398438,23.1875 26.9648438,23.9882812 C27.5898438,24.7890625 27.9023438,25.8925781 27.9023438,27.2988281 L27.9023438,60.84375 C27.9023438,64.7695312 26.5644531,66.7324219 23.8886719,66.7324219 C22.6972656,66.7324219 21.7402344,66.3320312 21.0175781,65.53125 C20.2949219,64.7304688 19.9335938,63.5488281 19.9335938,61.9863281 Z" id="Path" fill="url(#linearGradient-2)" fill-rule="nonzero"></path>
                <path d="M51.6601562,62.2792969 L51.6601562,56.8300781 L36.953125,56.8300781 C35.0976562,56.8300781 33.7060547,56.4101562 32.7783203,55.5703125 C31.8505859,54.7304688 31.3867188,53.5878906 31.3867188,52.1425781 C31.3867188,51.7714844 31.4550781,51.3955078 31.5917969,51.0146484 C31.7285156,50.6337891 31.9335938,50.2333984 32.2070312,49.8134766 C32.4804688,49.3935547 32.7636719,48.9882812 33.0566406,48.5976562 C33.3496094,48.2070312 33.7109375,47.7285156 34.140625,47.1621094 L49.6679688,26.390625 C50.6835938,25.0234375 51.5185547,24.0322266 52.1728516,23.4169922 C52.8271484,22.8017578 53.6132812,22.4941406 54.53125,22.4941406 C57.5,22.4941406 58.984375,24.1933594 58.984375,27.5917969 L58.984375,50.2675781 L60.2441406,50.2675781 C61.7480469,50.2675781 62.9541016,50.4726562 63.8623047,50.8828125 C64.7705078,51.2929688 65.2246094,52.1914062 65.2246094,53.578125 C65.2246094,54.7109375 64.8535156,55.5361328 64.1113281,56.0537109 C63.3691406,56.5712891 62.2558594,56.8300781 60.7714844,56.8300781 L58.984375,56.8300781 L58.984375,62.2792969 C58.984375,63.7832031 58.6523438,64.9013672 57.9882812,65.6337891 C57.3242188,66.3662109 56.4355469,66.7324219 55.3222656,66.7324219 C54.2285156,66.7324219 53.3447266,66.3564453 52.6708984,65.6044922 C51.9970703,64.8525391 51.6601562,63.7441406 51.6601562,62.2792969 Z M39.0625,50.2675781 L51.6601562,50.2675781 L51.6601562,33.2460938 L39.0625,50.2675781 Z" id="Shape" fill="url(#linearGradient-3)" fill-rule="nonzero"></path>
            </g>
        </g>
    </g>
</svg>