<?xml version="1.0" encoding="UTF-8"?>
<svg width="140px" height="140px" viewBox="0 0 140 140" version="1.1" xmlns="http://www.w3.org/2000/svg" xmlns:xlink="http://www.w3.org/1999/xlink">
    <title>Group 2</title>
    <g id="Page-1" stroke="none" stroke-width="1" fill="none" fill-rule="evenodd">
        <g id="Artboard" transform="translate(-166.000000, -198.000000)">
            <g id="Group-2" transform="translate(166.000000, 198.000000)">
                <circle id="Oval" fill="#FF6B6B" cx="70" cy="70" r="70"></circle>
                <g id="Group" transform="translate(30.042969, 40.050781)" fill="#3E0202" fill-rule="nonzero">
                    <path d="M0,0 L11.9238281,0 L11.9238281,8.11523438 L0,8.11523438 L0,0 Z M0,11.8359375 L11.9238281,11.8359375 L11.9238281,42.9492188 L0,42.9492188 L0,11.8359375 Z" id="Shape"></path>
                    <path d="M31.40625,11.8359375 L31.40625,28.9453125 C31.40625,30.8984375 31.7675781,32.2851562 32.4902344,33.1054688 C33.2128906,33.9257813 34.2285156,34.3359375 35.5371094,34.3359375 C36.9628906,34.3359375 38.1298828,33.7890625 39.0380859,32.6953125 C39.9462891,31.6015625 40.4003906,29.6386719 40.4003906,26.8066406 L40.4003906,11.8359375 L52.3242188,11.8359375 L52.3235266,15.8359375 L52.3535156,15.8359375 L52.3535156,45.2207031 C52.0963542,48.6809896 51.6910807,51.0003255 51.1376953,52.1787109 C50.3076172,53.9462891 49.2041016,55.3769531 47.8271484,56.4707031 C46.4501953,57.5644531 44.7021484,58.3554688 42.5830078,58.84375 C40.4638672,59.3320313 38.0371094,59.5761719 35.3027344,59.5761719 C29.0527344,59.5761719 26.3383502,58.6938766 23.2958253,56.4707031 C20.2533005,54.2475297 18.9453125,48.3164063 18.984375,47.6523438 L28.2166984,47.6523438 L28.2970195,47.9437717 C28.5947661,49.0008161 29.0984726,50.4243536 30.7978595,51.5057233 C32.6590928,52.6900806 36.5753751,52.5719741 38.2382593,51.0514674 C42.8141329,46.8673834 43.1130969,39.5244995 41.1909259,40.3306845 C39.2687548,41.1368695 37.2808971,41.7966498 36.3178279,42.2587983 L36.1669922,42.3339844 C34.4775391,43.2128906 32.4023438,43.6523438 29.9414063,43.6523438 C26.6601563,43.6523438 24.0869141,42.6708984 22.2216797,40.7080078 C20.3564453,38.7451172 19.4238281,35.7226563 19.4238281,31.640625 L19.4238281,11.8359375 L31.40625,11.8359375 Z" id="Path"></path>
                    <path d="M58.0957031,27.4804688 C58.0957031,22.734375 59.6972656,18.8232422 62.9003906,15.7470703 C66.1035156,12.6708984 70.4296875,11.1328125 75.8789062,11.1328125 C82.109375,11.1328125 86.8164062,12.9394531 90,16.5527344 C92.5585938,19.4628906 93.8378906,23.046875 93.8378906,27.3046875 C93.8378906,32.0898438 92.2509766,36.0107422 89.0771484,39.0673828 C85.9033203,42.1240234 81.5136719,43.6523438 75.9082031,43.6523438 C70.9082031,43.6523438 66.8652344,42.3828125 63.7792969,39.84375 C59.9902344,36.6992188 58.0957031,32.578125 58.0957031,27.4804688 Z M70.0488281,27.4511719 C70.0488281,30.2246094 70.6103516,32.2753906 71.7333984,33.6035156 C72.8564453,34.9316406 74.2675781,35.5957031 75.9667969,35.5957031 C77.6855469,35.5957031 79.0966797,34.9414062 80.2001953,33.6328125 C81.3037109,32.3242188 81.8554688,30.2246094 81.8554688,27.3339844 C81.8554688,24.6386719 81.2988281,22.6318359 80.1855469,21.3134766 C79.0722656,19.9951172 77.6953125,19.3359375 76.0546875,19.3359375 C74.3164062,19.3359375 72.8808594,20.0048828 71.7480469,21.3427734 C70.6152344,22.6806641 70.0488281,24.7167969 70.0488281,27.4511719 Z" id="Shape"></path>
                </g>
            </g>
        </g>
    </g>
</svg>